HIERARCHY
ROOT hip
{
	OFFSET 0.000000 0.000000 0.000000 
	CHANNELS 6 Xposition Yposition Zposition Xrotation Zrotation Yrotation
	JOINT abdomen
	{
		OFFSET 0.000000 3.402643 0.000000 
		CHANNELS 3 Xrotation Zrotation Yrotation
		JOINT chest
		{
			OFFSET 0.000000 8.438565 -0.680529 
			CHANNELS 3 Xrotation Zrotation Yrotation
			JOINT neck
			{
				OFFSET 0.000000 10.207942 -0.272212 
				CHANNELS 3 Xrotation Zrotation Yrotation
				JOINT head
				{
					OFFSET 0.000000 3.130431 0.000000 
					CHANNELS 3 Xrotation Zrotation Yrotation
					End Site
					{
						OFFSET 0.000000 3.130435 0.000000 
					}
				}
			}
			JOINT lCollar
			{
				OFFSET 3.470700 6.669187 -0.816635 
				CHANNELS 3 Yrotation Zrotation Xrotation
				JOINT lShldr
				{
					OFFSET 3.198488 0.000000 0.000000 
					CHANNELS 3 Zrotation Yrotation Xrotation
					JOINT lForeArm
					{
						OFFSET 10.139888 0.000000 0.000000 
						CHANNELS 3 Yrotation Zrotation Xrotation
						JOINT lHand
						{
							OFFSET 8.370511 0.000000 0.000000 
							CHANNELS 3 Zrotation Yrotation Xrotation
							End Site
							{
								OFFSET 4.083176 0.000000 0.000000 
							}
						}
					}
				}
			}
			JOINT rCollar
			{
				OFFSET -3.470700 6.669187 -0.816635 
				CHANNELS 3 Yrotation Zrotation Xrotation
				JOINT rShldr
				{
					OFFSET -3.198488 0.000000 0.000000 
					CHANNELS 3 Zrotation Yrotation Xrotation
					JOINT rForeArm
					{
						OFFSET -10.139888 0.000000 0.000000 
						CHANNELS 3 Yrotation Zrotation Xrotation
						JOINT rHand
						{
							OFFSET -8.370511 0.000000 0.000000 
							CHANNELS 3 Zrotation Yrotation Xrotation
							End Site
							{
								OFFSET -4.083176 0.000000 0.000000 
							}
						}
					}
				}
			}
		}
	}
	JOINT lThigh
	{
		OFFSET 5.308129 -1.633274 1.361059 
		CHANNELS 3 Xrotation Zrotation Yrotation
		JOINT lShin
		{
			OFFSET -2.041588 -20.007561 0.000000 
			CHANNELS 3 Xrotation Zrotation Yrotation
			JOINT lFoot
			{
				OFFSET 0.000000 -19.190928 -1.224953 
				CHANNELS 3 Xrotation Yrotation Zrotation
				End Site
				{
					OFFSET 0.000000 -2.449906 4.627600 
				}
			}
		}
	}
	JOINT rThigh
	{
		OFFSET -5.308129 -1.633274 1.361059 
		CHANNELS 3 Xrotation Zrotation Yrotation
		JOINT rShin
		{
			OFFSET 2.041588 -20.007561 0.000000 
			CHANNELS 3 Xrotation Zrotation Yrotation
			JOINT rFoot
			{
				OFFSET 0.000000 -19.190928 -1.224953 
				CHANNELS 3 Xrotation Yrotation Zrotation
				End Site
				{
					OFFSET 0.000000 -2.449906 4.627600 
				}
			}
		}
	}
}
MOTION
Frames: 18
Frame Time: 0.033333
-19.314510 40.365017 54.650414 7.258013 -5.583155 -19.157637 0.000000 0.000000 0.000000 73.068954 -6.100817 -12.592774 -58.782173 3.167391 -25.745169 19.564520 5.411023 -15.902260 -3.521967 9.154817 6.304141 64.681305 -42.147781 -102.243553 -22.961502 23.214399 16.230556 28.765322 26.591902 -5.662469 3.089181 -14.089146 8.026228 18.466537 106.530678 -45.476192 33.950184 -24.130819 56.327381 -14.250798 -15.396659 -8.605108 -50.983593 33.482979 17.774260 75.226753 -1.062691 -11.548304 -14.787892 -0.830308 5.047818 -50.865734 -21.004095 -5.957627 61.912441 -6.228343 38.366089 14.529486 -0.020473 -0.971304 
-18.146137 40.206593 54.854702 7.822850 -5.462588 -22.923365 0.000000 0.000000 0.000000 73.687042 -6.553978 -15.730936 -63.096577 2.335235 -24.132608 22.807297 4.847827 -14.642954 -3.521967 9.154817 6.304141 62.689621 -36.604691 -102.152550 -22.184767 20.767466 17.201374 28.164171 24.840830 -6.102355 3.089181 -14.089146 8.026228 32.007442 104.702003 -31.100191 37.615711 -21.755116 56.165482 -13.684405 -16.190897 -8.590478 -50.493717 34.398335 19.582666 76.715279 -1.238016 -9.380317 -15.714812 -1.072555 6.170333 -52.742424 -22.948462 -8.722920 58.353687 -4.448531 35.319969 17.243879 0.114955 0.656834 
-17.130266 39.958321 55.027416 8.338352 -5.012111 -26.270327 0.000000 0.000000 0.000000 74.673225 -7.061503 -18.022753 -68.166267 2.223919 -23.338846 26.893225 3.793637 -13.212982 -3.521967 9.154817 6.304141 61.711372 -31.323647 -102.064178 -22.651545 18.268002 17.640720 26.707312 23.034189 -6.606835 3.089181 -14.089146 8.026228 54.480156 104.199142 -8.169286 38.954391 -20.017725 54.206665 -14.199082 -16.604193 -8.544902 -50.358990 35.006245 21.251772 78.077713 -1.238556 -7.123280 -16.774134 -1.414147 7.596459 -53.621155 -25.184145 -13.105605 54.711220 -2.154054 23.383188 17.464046 0.283410 2.024414 
-16.394625 39.599186 55.265057 8.588619 -4.282609 -28.975651 0.000000 0.000000 0.000000 75.617935 -7.476728 -19.775570 -71.869057 2.129019 -22.526028 29.582434 3.313427 -12.109965 -3.521967 9.154817 6.304141 61.077511 -26.883991 -101.542030 -22.848515 16.210558 20.921608 24.429743 21.290491 -7.126022 3.089181 -14.089146 8.026228 77.104286 105.322029 13.832712 39.116573 -17.995848 50.179295 -14.269757 -17.082304 -8.499201 -50.103203 35.393383 22.933313 79.849190 -1.131139 -6.226005 -17.624470 -1.722784 8.875362 -52.817314 -26.831158 -17.547037 50.464260 0.606335 13.131875 18.730377 0.536592 4.354321 
-15.977113 39.233501 55.499069 8.700883 -3.890688 -31.095249 0.000000 0.000000 0.000000 77.011406 -7.821132 -20.985592 -75.960442 1.151740 -20.609753 32.549805 4.907974 -11.036315 -3.521967 9.154817 6.304141 60.294094 -22.256378 -97.505203 -22.601746 14.340284 24.580858 22.762516 19.153526 -7.548860 3.089181 -14.089146 8.026228 94.147003 108.958473 28.015072 37.683098 -15.595236 48.808693 -15.140035 -17.525196 -8.428307 -49.686199 36.179157 24.676130 81.567902 -0.848046 -6.358529 -18.144810 -2.008438 9.875708 -51.356224 -27.371744 -20.460119 47.682510 3.176478 9.861454 16.918997 0.484517 4.860819 
-15.809730 38.780827 55.645546 8.919601 -3.163096 -32.526688 0.000000 0.000000 0.000000 77.727852 -8.056802 -21.364542 -77.640259 1.093231 -19.827911 33.769119 5.102031 -10.324518 -3.521967 9.154817 6.304141 60.264500 -18.801117 -95.349373 -22.086142 12.783583 27.844557 20.750370 17.212059 -7.920450 3.089181 -14.089146 8.026228 107.062561 113.262611 38.996006 35.502022 -14.256629 46.884598 -15.882558 -18.147743 -8.347920 -49.979706 36.590233 25.899078 83.043968 -0.526758 -5.315941 -19.216627 -2.361254 11.036909 -51.707355 -27.927820 -21.474331 47.707695 4.462729 7.790450 10.667203 0.153639 3.139087 
-15.767944 38.214874 55.945675 9.000618 -2.208999 -34.374950 0.000000 0.000000 0.000000 77.759323 -8.892316 -20.492197 -76.653473 3.172478 -21.871012 33.051353 0.365554 -9.912279 -3.521967 9.154817 6.304141 60.530754 -18.028986 -96.068756 -21.366070 11.719263 31.719456 19.056881 17.167263 -8.014688 3.089181 -14.089146 8.026228 -61.919621 62.688057 -129.769089 32.452679 -14.443364 41.078014 -14.663831 -18.834032 -8.373246 -49.908123 37.295738 27.307526 85.054230 -0.263439 -3.889760 -20.505110 -2.615368 11.848623 -54.811462 -28.531982 -20.531904 51.187260 3.818449 8.345006 10.866233 0.139974 3.102841 
-15.699108 37.756195 56.329227 8.837611 -2.051132 -36.433353 0.000000 0.000000 0.000000 79.108543 -9.078673 -18.066446 -77.033035 3.852671 -21.868244 34.281818 -1.465036 -9.261002 -3.521967 9.154817 6.304141 60.476265 -17.059507 -95.285179 -20.804779 10.926151 32.006390 16.992983 17.628777 -8.057027 3.089181 -14.089146 8.026228 -57.183800 56.241417 -125.076035 25.743132 -16.594633 38.797680 -13.427797 -18.605473 -8.460449 -49.098759 38.517918 28.911777 86.997086 0.205132 -3.018325 -21.497393 -2.920955 12.579030 -57.811546 -28.407377 -19.089075 55.256031 1.875512 7.914704 13.759726 0.329038 4.255844 
-15.629914 37.434620 56.542797 8.358855 -1.509095 -37.593441 0.000000 0.000000 0.000000 81.533379 -7.794923 -15.262893 -77.257988 4.189993 -20.849173 35.395267 -1.121331 -8.165738 -3.521967 9.154817 6.304141 60.202286 -16.627964 -96.277832 -21.024734 11.376570 30.061247 16.258717 17.325596 -8.120318 3.089181 -14.089146 8.026228 -54.418217 47.640999 -123.049057 20.978346 -17.661661 40.447929 -12.999672 -16.628836 -8.581072 -48.407417 38.669472 30.278252 88.126167 0.586000 -2.528231 -21.600264 -3.040018 12.969872 -58.953411 -28.367580 -18.828199 56.981491 1.056269 4.748929 10.221469 0.126385 3.752723 
-15.811257 37.062286 56.774235 7.591116 -0.536891 -38.244232 0.000000 0.000000 0.000000 83.698631 -5.921737 -12.912142 -76.291023 4.885448 -19.938608 36.569897 -2.315833 -7.154407 -3.521967 9.154817 6.304141 59.235207 -17.594322 -98.888161 -21.544743 12.158628 29.211081 18.590141 17.476843 -7.997654 3.089181 -14.089146 8.026228 -51.754303 39.742859 -120.001686 20.105206 -16.205151 41.000359 -12.219785 -14.984911 -8.703499 -47.674232 38.334518 31.377014 89.221603 0.878997 -1.204084 -21.724298 -3.101288 13.125756 -59.969929 -28.788324 -18.567263 58.752159 0.499589 2.700425 4.118421 -0.080384 2.115985 
-16.266283 36.745972 57.034672 6.880744 -0.378498 -39.180733 0.000000 0.000000 0.000000 85.883781 -4.180207 -10.272118 -74.947327 4.390295 -17.386166 39.308533 -1.883196 -6.273192 -3.521967 9.154817 6.304141 57.434856 -18.672029 -99.023346 -21.624496 11.898170 28.420765 20.529476 17.753197 -7.863864 3.089181 -14.089146 8.026228 -51.988743 33.481274 -118.662094 18.930264 -15.295753 41.087074 -11.384617 -14.265594 -8.739614 -46.453724 39.047150 32.157253 90.480339 1.357195 -0.284988 -21.873388 -3.101058 13.106089 -61.176838 -28.501398 -17.636606 61.618717 -0.498087 2.318803 3.428223 -0.064681 1.795256 
-16.748886 36.616146 57.213455 6.425535 -0.419108 -39.971992 0.000000 0.000000 0.000000 88.100227 -2.574483 -7.664267 -74.208839 5.060757 -17.079485 41.724831 -2.944822 -5.613094 -3.521967 9.154817 6.304141 55.925529 -19.745665 -97.987534 -21.436241 11.123074 27.833406 21.333763 17.551062 -7.849060 3.089181 -14.089146 8.026228 -52.982281 28.351490 -118.328667 17.844370 -14.788287 41.255295 -11.277971 -12.319332 -8.807184 -45.349689 39.776367 32.619747 90.962234 1.679515 0.611523 -21.640886 -3.042308 12.957460 -61.722317 -28.021870 -17.096209 63.507439 -1.171568 2.738743 3.531064 -0.056240 1.684049 
-17.306547 36.595314 57.316460 6.170690 -0.044705 -40.273453 0.000000 0.000000 0.000000 89.720512 -0.845659 -5.528037 -72.990990 6.212185 -17.842348 42.501324 -5.686615 -5.516344 -3.521967 9.154817 6.304141 54.826260 -21.639744 -97.814545 -21.096342 10.251311 27.520771 22.083836 18.456335 -7.698493 3.089181 -14.089146 8.026228 -54.323910 24.490065 -117.944283 16.893177 -14.897360 42.062092 -10.853537 -10.264076 -8.872551 -44.773495 39.971432 32.554188 90.899590 1.787018 1.614996 -21.097475 -2.882001 12.539531 -61.789783 -27.689089 -17.163603 64.486488 -1.503783 1.869318 1.428701 -0.084167 1.185536 
-18.047205 36.630688 57.443359 5.964367 0.312120 -40.449932 0.000000 0.000000 0.000000 90.657494 0.701643 -3.720902 -71.468246 6.669936 -17.544041 42.778610 -7.680642 -5.430331 -3.521967 9.154817 6.304141 53.888466 -25.106146 -98.530052 -20.993980 9.777631 25.577675 21.777237 17.555214 -7.834805 3.089181 -14.089146 8.026228 -56.083988 22.269564 -116.785034 15.492905 -15.108359 42.872276 -8.745500 -10.202622 -8.850315 -44.081848 40.360256 32.113876 90.822670 1.894368 1.252367 -20.094263 -2.593755 11.730904 -61.814037 -27.332041 -17.155836 65.992111 -1.904286 1.709976 -0.435193 -0.054196 0.449895 
-18.839880 36.790638 57.631508 5.709623 0.844078 -40.698658 0.000000 0.000000 0.000000 91.249413 1.502326 -2.627842 -70.054001 7.537999 -17.972374 42.393353 -9.375037 -5.267308 -3.521967 9.154817 6.304141 53.664066 -29.135408 -99.677605 -21.010046 9.580110 24.312202 22.791679 16.979097 -7.851478 3.089181 -14.089146 8.026228 -58.222984 21.653217 -117.989662 13.350631 -15.658610 43.142506 -5.993165 -10.607895 -8.818348 -42.948650 40.396919 31.766350 90.161514 1.777487 1.474930 -18.881584 -2.159096 10.502223 -61.764900 -27.273039 -17.189634 67.442253 -2.205871 2.573895 -1.733256 -0.011642 -0.330266 
-19.554241 37.085419 57.859829 5.544097 1.565372 -41.200279 0.000000 0.000000 0.000000 91.691460 1.415242 -1.894918 -68.438271 9.140174 -19.356821 40.924355 -11.354574 -4.981198 -3.521967 9.154817 6.304141 54.600090 -33.407276 -101.418602 -20.975008 9.368472 23.923708 22.487984 18.469528 -7.673656 3.089181 -14.089146 8.026228 -60.465363 22.335804 -121.363800 11.509139 -16.972193 38.148525 -4.556612 -11.610780 -8.830243 -41.590748 40.092022 31.526255 89.205513 1.591945 1.090562 -17.921867 -1.911173 9.771961 -61.546848 -27.045803 -17.152645 68.081795 -2.421716 3.252160 -2.708714 0.042508 -0.878534 
-20.315363 37.416782 58.150600 5.401097 2.141016 -41.802994 0.000000 0.000000 0.000000 91.862274 0.888581 -0.820365 -65.434334 10.750997 -20.033403 38.596718 -13.282011 -4.426799 -3.521967 9.154817 6.304141 56.569729 -38.807560 -105.676788 -21.013674 9.345604 24.271229 19.157782 18.357473 -7.871207 3.089181 -14.089146 8.026228 -62.634781 24.501534 -127.425606 11.486399 -17.035456 28.307819 -4.869586 -14.211211 -8.884045 -40.507595 39.851879 30.604656 88.607986 1.748115 -0.301757 -16.238518 -1.590354 8.684153 -60.981480 -26.665861 -17.259779 68.524567 -2.656214 3.678816 -3.607832 0.068814 -1.261030 
-21.140963 37.680721 58.503815 4.611900 2.679723 -42.674583 0.000000 0.000000 0.000000 92.043190 -0.166001 -0.751978 -61.845547 11.733827 -18.903704 37.586834 -13.678814 -3.337187 -3.521967 9.154817 6.304141 58.554569 -44.412659 -110.088303 -21.512846 10.128347 24.770952 18.184780 18.283285 -7.940097 3.089181 -14.089146 8.026228 -65.670647 28.050905 -140.342331 13.318601 -15.758322 21.290541 -6.558734 -15.784787 -8.863297 -40.125553 39.633080 28.980844 89.011696 2.294917 -0.445048 -12.391268 -0.776403 5.410741 -60.249050 -26.314384 -17.014721 69.310814 -3.066032 3.847016 -4.952050 0.152657 -1.877630 
